<svg width="24" height="25" viewBox="0 0 24 25" fill="none" xmlns="http://www.w3.org/2000/svg">
<g id="Interface essential/Filter">
<g id="Icon">
<path fill-rule="evenodd" clip-rule="evenodd" d="M13.7691 11.2537C14.6701 11.232 15.4749 10.6848 15.8263 9.85499C15.9013 9.88661 15.9815 9.90405 16.0629 9.90641H20.1771C20.6032 9.90641 20.9486 9.56108 20.9486 9.13509C20.9486 8.7091 20.6032 8.36377 20.1771 8.36377H16.1143C16.0699 8.35795 16.025 8.35795 15.9806 8.36377C15.686 7.20637 14.5523 6.46877 13.3746 6.66824C12.1969 6.86771 11.3695 7.93748 11.4726 9.12732C11.5756 10.3172 12.5747 11.2288 13.7691 11.2228V11.2537ZM13.7691 8.21978C14.1838 8.21978 14.52 8.55591 14.52 8.97054C14.52 9.38517 14.1838 9.7213 13.7691 9.7213C13.3545 9.7213 13.0183 9.38517 13.0183 8.97054C13.0183 8.55591 13.3545 8.21978 13.7691 8.21978Z" fill="white"/>
<path d="M3.77143 8.36377H9.94286C10.3689 8.36377 10.7143 8.7091 10.7143 9.13509C10.7143 9.56108 10.3689 9.90641 9.94286 9.90641H3.77143C3.34538 9.90641 3 9.56108 3 9.13509C3 8.7091 3.34538 8.36377 3.77143 8.36377Z" fill="white"/>
<path fill-rule="evenodd" clip-rule="evenodd" d="M5.736 16.5912C6.05818 15.6801 6.91918 15.0705 7.88571 15.0691V15.0486C9.04884 15.0471 10.029 15.9163 10.1663 17.0712C10.3037 18.226 9.55477 19.3008 8.42374 19.5721C7.29271 19.8434 6.13762 19.2253 5.736 18.1339H3.77143C3.34538 18.1339 3 17.7885 3 17.3626C3 16.9366 3.34538 16.5912 3.77143 16.5912H5.736ZM7.1361 17.4167C7.14317 17.8257 7.47652 18.1538 7.88571 18.1544V18.1133C8.3004 18.1133 8.63657 17.7772 8.63657 17.3626C8.61415 16.954 8.26871 16.6387 7.85978 16.6534C7.45086 16.6682 7.12903 17.0076 7.1361 17.4167Z" fill="white"/>
<path d="M12 16.5912H20.2286C20.6546 16.5912 21 16.9366 21 17.3626C21 17.7885 20.6546 18.1339 20.2286 18.1339H12C11.574 18.1339 11.2286 17.7885 11.2286 17.3626C11.2286 16.9366 11.574 16.5912 12 16.5912Z" fill="white"/>
</g>
</g>
</svg>
