<svg width="24" height="24" viewBox="0 0 24 24" fill="none" xmlns="http://www.w3.org/2000/svg">
<path fill-rule="evenodd" clip-rule="evenodd" d="M20.7537 7.66961C19.3275 4.24498 15.9858 2.01032 12.2761 2.00041C8.27105 1.97635 4.70855 4.54065 3.46008 8.3462C2.21162 12.1518 3.56277 16.3281 6.80374 18.6811C10.0447 21.0342 14.4341 21.0259 17.6661 18.6604L20.5361 21.5304C20.8289 21.8229 21.3033 21.8229 21.5961 21.5304C21.8885 21.2376 21.8885 20.7632 21.5961 20.4704L18.8061 17.6804C21.4122 15.0403 22.1799 11.0942 20.7537 7.66961ZM9.95539 8.04203C9.71137 8.62586 9.13885 9.00446 8.50609 9.00041C7.65005 9.00041 6.95609 8.30645 6.95609 7.45041C6.95205 6.81765 7.33064 6.24513 7.91447 6.00111C8.4983 5.75709 9.1717 5.88992 9.61914 6.33736C10.0666 6.7848 10.1994 7.4582 9.95539 8.04203Z" fill="black"/>
</svg>
