<svg width="24" height="24" viewBox="0 0 24 24" fill="none" xmlns="http://www.w3.org/2000/svg">
<path fill-rule="evenodd" clip-rule="evenodd" d="M20.7366 7.66957C19.3104 4.24494 15.9687 2.01028 12.259 2.00037C8.2608 1.97932 4.70571 4.5403 3.45939 8.33934C2.21307 12.1384 3.56024 16.3076 6.79393 18.6591C10.0276 21.0105 14.4091 21.007 17.639 18.6504L20.519 21.5304C20.8118 21.8228 21.2862 21.8228 21.579 21.5304C21.8715 21.2376 21.8715 20.7632 21.579 20.4704L18.789 17.6804C21.3951 15.0402 22.1628 11.0942 20.7366 7.66957ZM19.3994 14.1693C18.202 17.055 15.3833 18.9344 12.259 18.9304V18.8904C8.01871 18.885 4.57646 15.4606 4.549 11.2204C4.54496 8.09611 6.42439 5.27742 9.31006 4.07994C12.1957 2.88247 15.5187 3.54232 17.7279 5.75152C19.937 7.96071 20.5969 11.2836 19.3994 14.1693Z" fill="black"/>
</svg>
