<svg width="24" height="24" viewBox="0 0 24 24" fill="none" xmlns="http://www.w3.org/2000/svg">
<path d="M7.86874 3.27378C8.04404 3.44913 8.14251 3.68693 8.14251 3.93488C8.14251 4.18282 8.04404 4.42062 7.86874 4.59597L6.19215 6.27256H13.5194C14.9989 6.27256 16.4452 6.71129 17.6754 7.53327C18.9056 8.35525 19.8644 9.52356 20.4306 10.8905C20.9968 12.2574 21.1449 13.7615 20.8563 15.2126C20.5676 16.6637 19.8552 17.9966 18.809 19.0427C17.7628 20.0889 16.4299 20.8014 14.9788 21.09C13.5277 21.3787 12.0236 21.2305 10.6567 20.6643C9.28979 20.0982 8.12148 19.1393 7.2995 17.9092C6.47752 16.679 6.03879 15.2327 6.03879 13.7532C6.03879 13.5052 6.13731 13.2673 6.31267 13.092C6.48803 12.9166 6.72587 12.8181 6.97387 12.8181C7.22187 12.8181 7.45971 12.9166 7.63507 13.092C7.81043 13.2673 7.90894 13.5052 7.90894 13.7532C7.90894 14.8628 8.23799 15.9475 8.85448 16.8702C9.47096 17.7928 10.3472 18.5119 11.3724 18.9365C12.3975 19.3612 13.5256 19.4723 14.6139 19.2558C15.7023 19.0393 16.7019 18.505 17.4866 17.7204C18.2712 16.9357 18.8056 15.936 19.022 14.8477C19.2385 13.7594 19.1274 12.6313 18.7028 11.6061C18.2781 10.581 17.559 9.70473 16.6364 9.08825C15.7138 8.47176 14.629 8.14271 13.5194 8.14271H6.19215L7.86874 9.8193C8.03907 9.99566 8.13332 10.2319 8.13119 10.477C8.12906 10.7222 8.03072 10.9567 7.85735 11.1301C7.68398 11.3035 7.44945 11.4018 7.20427 11.404C6.9591 11.4061 6.7229 11.3118 6.54654 11.1415L3.27378 7.86874C3.09848 7.69338 3 7.45559 3 7.20764C3 6.95969 3.09848 6.72189 3.27378 6.54654L6.54654 3.27378C6.72189 3.09848 6.95969 3 7.20764 3C7.45559 3 7.69338 3.09848 7.86874 3.27378Z" fill="#333333"/>
</svg>
