<svg width="165" height="198" viewBox="0 0 165 198" fill="none" xmlns="http://www.w3.org/2000/svg">
<path d="M72.6048 70.4906C67.4574 75.4117 57.1197 76.7663 49.1793 73.4406C42.212 70.517 37.6714 64.502 38.4013 58.9585C39.0751 53.7996 43.1576 46.98 48.4083 43.4976C49.8743 42.5239 52.8111 40.7955 53.8494 43.2096C54.706 42.1579 55.4218 41.0402 56.2616 39.985C57.4757 38.4645 59.0179 36.3441 61.2851 35.4572C62.9492 34.8067 64.4279 34.8726 65.7876 36.0066C68.2481 38.0494 70.4186 43.8559 71.4992 46.529C74.3256 53.4825 78.9517 64.4168 72.6029 70.4852L72.6048 70.4906ZM61.8637 65.9601C64.2498 63.5944 64.2375 57.3374 63.5965 54.3649C63.3712 53.3249 62.3528 51.5611 60.6829 52.6964C57.9696 54.5476 55.6009 58.1943 53.751 60.5857C53.4086 61.03 52.7034 61.4034 52.6915 62.0072C52.7633 62.3974 54.3625 62.926 54.6899 63.3955C55.5186 64.5875 54.7362 65.8996 55.9416 67.02C56.8695 67.8838 58.8343 67.8075 60.0328 67.381C60.4737 67.2221 61.5293 66.2908 61.8637 65.9601Z" fill="#FD972A"/>
<path d="M138.466 94.678L141.138 94.7333C144.738 94.9174 146.354 98.6091 145.164 107.192C143.984 115.698 141.403 118.965 137.889 118.162L135.303 117.489C135.14 118.096 134.977 118.704 134.813 119.312C133.431 124.164 129.278 126.268 123.865 125.517C117.602 124.649 113.989 121.153 115.534 115.693C117.622 108.022 118.821 98.81 118.968 91.5009C119.063 85.1305 123.318 83.435 129.581 84.3037C134.994 85.0543 138.429 88.1315 138.427 93.254C138.44 93.7287 138.453 94.2034 138.466 94.678ZM99.5122 88.0146L99.5766 87.5506C100.263 82.6019 102.443 81.0916 109.17 82.0245C114.814 82.8074 116.834 85.2942 116.76 91.51C116.658 99.0617 115.693 106.021 113.822 112.697C112.396 117.858 108.976 120.93 104.384 121.081C95.73 121.536 88.4616 120.528 80.1812 117.725C75.8037 116.33 73.2707 112.432 73.304 107.077C73.2425 100.133 74.2183 93.097 76.2423 85.8906C77.9056 79.58 80.3281 78.0245 86.8233 78.9253C93.3958 79.8369 94.6527 82.1391 94.0093 86.7785L93.9449 87.2424C95.8543 87.1132 97.7101 87.3706 99.5122 88.0146ZM88.4707 101.142C92.4808 101.777 96.0958 102.988 99.2407 105.315C100.315 106.095 102.028 103.968 100.467 102.727C97.2766 100.157 93.0988 99.0255 89.2778 98.732C87.6326 98.6615 87.2335 100.97 88.4707 101.142ZM105.893 131.221L106.151 129.365C107.084 122.638 131.494 125.629 132.611 134.059C133.305 139.279 132.634 145.254 130.423 149.833C128.759 153.307 124.217 154.805 117.646 154.445C105.058 153.724 93.1394 152.15 80.7631 149.33C74.3322 147.965 70.3797 145.21 69.8012 141.426C68.9969 136.428 69.9 130.485 71.9889 125.652C75.2799 117.833 99.5833 121.598 98.6503 128.325L98.3929 130.181C101.131 130.324 103.219 130.614 105.893 131.221ZM95.0358 140.749C98.2794 142.932 102.466 143.434 106.17 142.293C106.843 141.992 107.382 141.515 107.18 140.699C107.033 140.048 106.314 139.554 105.663 139.701C102.588 140.85 98.6548 140.226 96.1629 138.304C95.7204 138.085 94.7711 138.111 94.288 138.754C93.8048 139.396 94.1271 139.913 95.0358 140.749Z" fill="#E33811"/>
<path d="M34.1845 110.343C34.4446 115.577 34.7047 120.812 34.758 125.969C34.7574 133.416 31.3497 139.637 23.2015 140.505C14.8569 141.395 10.3127 136.021 8.74251 128.742C7.36468 122.336 6.39001 115.986 5.50303 109.528L5.13679 106.092C3.84572 94.9107 3.00517 80.5044 2.57271 69.9268C2.19258 59.8401 6.09604 57.339 13.8516 56.5123C21.4108 55.7066 25.6556 57.3392 27.7046 67.248C28.3026 70.0636 29.2877 76.5116 29.7417 79.8389C26.3146 83.0835 24.4688 86.2589 23.0639 90.7772C22.3438 93.3362 24.7169 94.1754 25.5102 92.3037C26.2722 90.1374 27.3392 88.038 28.5043 85.928C32.1083 79.686 37.5969 76.2216 43.8799 75.5519C56.544 74.202 63.9676 84.233 65.4366 97.083C66.4974 106.104 66.6723 113.334 66.6637 122.568C66.7613 130.004 63.2555 136.236 55.1073 137.105C46.7627 137.994 42.2184 132.62 40.6483 125.341C39.5151 120.299 38.6869 115.324 37.9464 110.24C37.6245 109.083 36.6887 108.686 35.9033 108.77C35.1179 108.853 34.3849 109.428 34.1845 110.343Z" fill="#E33811"/>
<path d="M79.0833 40.2273C76.8277 39.9653 74.9461 39.051 73.6643 38.1069C70.6445 35.8677 69.595 32.0683 70.1988 26.8707C71.0988 19.1233 75.3588 17.5309 82.0661 17.1174C82.3123 15.8539 82.4604 14.579 82.7065 13.3155C84.6531 3.40373 88.9132 1.81139 96.6605 2.7114C104.212 3.58861 107.993 6.11513 107.812 16.232C107.801 16.3301 107.789 16.4281 107.778 16.5262C111.919 16.8086 116.004 17.5812 118.198 19.2276C121.218 21.4669 122.256 25.3643 121.652 30.5619C120.775 38.1132 116.522 40.5015 109.468 40.4772L106.786 40.4638C106.513 42.8174 106.164 44.9635 105.665 46.6946C101.017 47.3473 96.8573 50.641 95.471 53.1635C94.6889 54.7623 96.68 55.59 97.4051 54.4815C100.283 50.2438 105.113 48.0219 109.578 48.9383C115.319 50.0027 120.298 55.0537 118.438 65.075C116.836 73.7347 106.863 77.4464 96.2717 76.216C77.3446 74.0173 77.2565 61.0861 78.9124 41.6984C78.9694 41.208 79.0263 40.7177 79.0833 40.2273Z" fill="#E33811"/>
<path d="M123.343 161.226C87.8165 156.312 32.2485 148.58 13.687 145.839C11.2538 145.48 9.39866 148.138 10.554 150.309L12.2006 153.404C17.2828 162.956 24.7524 171.132 33.7835 177.092C51.4555 188.752 74.0599 190.538 93.2727 181.641L100.944 178.089L124.202 166.756C126.802 165.489 126.208 161.623 123.343 161.226Z" fill="black"/>
<rect x="111.992" y="159.688" width="52.79" height="11.4408" rx="5.72038" transform="rotate(7.73485 111.992 159.688)" fill="black"/>
</svg>
