<svg width="67" height="72" viewBox="0 0 67 72" fill="none" xmlns="http://www.w3.org/2000/svg">
<g id="Group 13">
<g id="&#235;&#160;&#136;&#236;&#157;&#180;&#236;&#150;&#180; 2">
<path id="Vector" d="M32.7474 31.8376C30.4595 34.0508 25.8311 34.6399 22.2588 33.1183C19.1243 31.7806 17.0653 29.0509 17.3706 26.5463C17.6523 24.2154 19.4554 21.1414 21.7953 19.5789C22.4486 19.142 23.7581 18.3673 24.233 19.4611C24.6129 18.9875 24.9293 18.4838 25.3016 18.0087C25.8398 17.324 26.5227 16.3688 27.5355 15.973C28.2788 15.6826 28.9419 15.7158 29.5558 16.2316C30.6667 17.1607 31.6625 19.7908 32.1574 21.0018C33.4517 24.152 35.5684 29.106 32.7465 31.8352L32.7474 31.8376ZM27.915 29.765C28.9752 28.7008 28.945 25.8719 28.646 24.5266C28.5409 24.0559 28.0775 23.2561 27.3335 23.7656C26.1245 24.5964 25.0772 26.2398 24.2574 27.3168C24.1057 27.5168 23.791 27.6841 23.7881 27.957C23.8218 28.1336 24.5407 28.3762 24.6893 28.5892C25.0655 29.13 24.7199 29.7215 25.2646 30.2307C25.684 30.6234 26.5644 30.5934 27.0999 30.4032C27.2969 30.3324 27.7664 29.9137 27.915 29.765Z" fill="#E33811"/>
</g>
<path id="&#235;&#176;&#165;" d="M62.4276 42.6858L63.6322 42.7108C65.2552 42.7937 65.9837 44.4582 65.4471 48.3278C64.9152 52.1626 63.7516 53.6357 62.1673 53.2738L61.0013 52.97C60.9278 53.2441 60.8542 53.5181 60.7807 53.7922C60.1575 55.9798 58.2849 56.9282 55.8446 56.5897C53.0208 56.1981 51.3917 54.622 52.0884 52.1603C53.03 48.7021 53.5705 44.5487 53.6366 41.2534C53.6796 38.3813 55.5978 37.6169 58.4216 38.0085C60.8619 38.3469 62.4106 39.7343 62.4101 42.0438C62.4159 42.2578 62.4218 42.4718 62.4276 42.6858ZM44.865 39.6816L44.894 39.4724C45.2034 37.2413 46.1862 36.5603 49.2191 36.981C51.764 37.3339 52.6745 38.4551 52.6412 41.2575C52.5954 44.6622 52.1602 47.7998 51.3164 50.8096C50.6739 53.1366 49.1316 54.5217 47.0612 54.5899C43.1598 54.795 39.8828 54.3405 36.1496 53.0766C34.1759 52.4475 33.0339 50.6902 33.0489 48.2761C33.0212 45.1454 33.4612 41.973 34.3737 38.724C35.1236 35.8788 36.2158 35.1775 39.1441 35.5837C42.1074 35.9946 42.6741 37.0326 42.384 39.1243L42.355 39.3335C43.2158 39.2752 44.0525 39.3912 44.865 39.6816ZM39.8869 45.6001C41.6949 45.8864 43.3247 46.4323 44.7426 47.4817C45.2268 47.8331 45.9994 46.8743 45.2953 46.3147C43.857 45.1559 41.9735 44.6459 40.2508 44.5136C39.509 44.4818 39.3291 45.5228 39.8869 45.6001ZM47.7419 59.1613L47.858 58.3247C48.2786 55.2917 59.2842 56.6404 59.7875 60.4411C60.1007 62.7941 59.7982 65.4881 58.8012 67.5528C58.051 69.1188 56.0031 69.7942 53.0409 69.6321C47.3653 69.3068 41.9918 68.5971 36.4119 67.3258C33.5125 66.7105 31.7305 65.4685 31.4697 63.7623C31.1071 61.509 31.5142 58.8295 32.456 56.6505C33.9398 53.1254 44.897 54.8227 44.4764 57.8557L44.3603 58.6924C45.595 58.757 46.5363 58.8875 47.7419 59.1613ZM42.8468 63.4569C44.3092 64.4415 46.1965 64.6677 47.8669 64.1532C48.1699 64.0175 48.4129 63.8025 48.3218 63.4346C48.2559 63.1412 47.9315 62.9185 47.6381 62.9844C46.2515 63.5028 44.4784 63.2213 43.3549 62.3549C43.1554 62.2561 42.7274 62.2678 42.5096 62.5574C42.2918 62.847 42.4371 63.0803 42.8468 63.4569Z" fill="#E33811"/>
<path id="h" d="M15.4122 49.7485C15.5295 52.1085 15.6467 54.4685 15.6707 56.7937C15.6705 60.151 14.1341 62.9558 10.4605 63.3474C6.69829 63.7484 4.64951 61.3257 3.94159 58.0439C3.32039 55.1557 2.88095 52.2929 2.48106 49.3811L2.31594 47.832C1.73385 42.7909 1.35489 36.2958 1.15992 31.5268C0.988532 26.9792 2.74842 25.8516 6.24504 25.4789C9.65313 25.1156 11.5669 25.8517 12.4907 30.3191C12.7603 31.5885 13.2045 34.4956 13.4091 35.9957C11.864 37.4586 11.0318 38.8902 10.3985 40.9273C10.0738 42.081 11.1437 42.4594 11.5014 41.6155C11.8449 40.6389 12.3259 39.6923 12.8512 38.741C14.4761 35.9268 16.9507 34.3649 19.7834 34.0629C25.4931 33.4543 28.84 37.9768 29.5023 43.7703C29.9806 47.8376 30.0594 51.097 30.0556 55.2604C30.0996 58.613 28.5189 61.4225 24.8453 61.8141C21.0831 62.2151 19.0343 59.7924 18.3264 56.5106C17.8155 54.2373 17.4421 51.9942 17.1083 49.7021C16.9631 49.1804 16.5412 49.0015 16.1871 49.0393C15.833 49.077 15.5025 49.336 15.4122 49.7485Z" fill="#E33811"/>
<path id="t" d="M35.6549 18.1366C34.638 18.0185 33.7896 17.6063 33.2117 17.1806C31.8502 16.1711 31.3771 14.4581 31.6493 12.1147C32.0551 8.6218 33.9757 7.90388 36.9997 7.71744C37.1107 7.14779 37.1775 6.57301 37.2885 6.00336C38.1661 1.53458 40.0867 0.816673 43.5797 1.22244C46.9842 1.61794 48.6891 2.75703 48.6073 7.31825C48.6022 7.36247 48.5971 7.40668 48.5919 7.4509C50.4592 7.57819 52.3008 7.92656 53.29 8.66883C54.6515 9.6784 55.1195 11.4356 54.8473 13.779C54.4518 17.1835 52.5343 18.2602 49.354 18.2493L48.1448 18.2432C48.0215 19.3044 47.8643 20.2719 47.6392 21.0524C45.5437 21.3467 43.6684 22.8317 43.0433 23.9689C42.6907 24.6898 43.5884 25.0629 43.9153 24.5632C45.2128 22.6526 47.3904 21.6508 49.4038 22.064C51.9919 22.5439 54.2367 24.8212 53.3982 29.3393C52.6758 33.2435 48.1795 34.917 43.4044 34.3622C34.871 33.3709 34.8313 27.5409 35.5779 18.7998C35.6035 18.5788 35.6292 18.3577 35.6549 18.1366Z" fill="#E33811"/>
</g>
</svg>
