<svg width="165" height="198" viewBox="0 0 165 198" fill="none" xmlns="http://www.w3.org/2000/svg">
<g id="Group 16">
<g id="Group 15">
<g id="Group 14">
<g id="&#235;&#160;&#136;&#236;&#157;&#180;&#236;&#150;&#180; 2">
<path id="Vector" d="M72.6058 70.4905C67.4584 75.4115 57.1206 76.7662 49.1803 73.4405C42.213 70.5169 37.6724 64.5018 38.4023 58.9584C39.076 53.7994 43.1586 46.9799 48.4093 43.4974C49.8753 42.5238 52.812 40.7954 53.8504 43.2095C54.707 42.1578 55.4228 41.04 56.2625 39.9849C57.4767 38.4644 59.0188 36.3439 61.2861 35.4571C62.9502 34.8066 64.4289 34.8725 65.7885 36.0064C68.249 38.0492 70.4196 43.8558 71.5002 46.5289C74.3266 53.4824 78.9527 64.4167 72.6039 70.4851L72.6058 70.4905ZM61.8647 65.96C64.2508 63.5943 64.2384 57.3372 63.5975 54.3647C63.3721 53.3248 62.3538 51.5609 60.6839 52.6963C57.9706 54.5475 55.6019 58.1941 53.752 60.5856C53.4096 61.0298 52.7043 61.4033 52.6925 62.0071C52.7643 62.3973 54.3635 62.9259 54.6909 63.3954C55.5196 64.5873 54.7372 65.8995 55.9426 67.0198C56.8705 67.8837 58.8353 67.8074 60.0337 67.3808C60.4747 67.222 61.5303 66.2906 61.8647 65.96Z" fill="#FD972A"/>
</g>
<path id="&#235;&#176;&#165;" d="M138.465 94.6778L141.137 94.7331C144.737 94.9171 146.353 98.6089 145.163 107.192C143.983 115.697 141.402 118.965 137.888 118.162L135.302 117.488C135.139 118.096 134.976 118.704 134.813 119.312C133.43 124.164 129.277 126.268 123.864 125.517C117.601 124.648 113.988 121.152 115.533 115.692C117.621 108.022 118.82 98.8098 118.967 91.5007C119.062 85.1302 123.317 83.4348 129.58 84.3034C134.993 85.0541 138.428 88.1312 138.426 93.2538C138.439 93.7285 138.452 94.2031 138.465 94.6778ZM99.5112 88.0143L99.5756 87.5504C100.262 82.6017 102.442 81.0913 109.169 82.0243C114.813 82.8071 116.833 85.2939 116.759 91.5097C116.657 99.0615 115.692 106.021 113.821 112.696C112.395 117.858 108.975 120.93 104.383 121.081C95.7291 121.536 88.4607 120.528 80.1803 117.725C75.8027 116.329 73.2697 112.432 73.303 107.077C73.2415 100.133 74.2174 93.0967 76.2413 85.8904C77.9047 79.5798 80.3271 78.0243 86.8223 78.9251C93.3948 79.8366 94.6517 82.1388 94.0083 86.7783L93.9439 87.2422C95.8533 87.1129 97.7091 87.3703 99.5112 88.0143ZM88.4697 101.142C92.4798 101.777 96.0949 102.987 99.2397 105.315C100.314 106.095 102.027 103.968 100.466 102.727C97.2756 100.156 93.0979 99.0253 89.2768 98.7318C87.6316 98.6612 87.2326 100.97 88.4697 101.142ZM105.892 131.221L106.15 129.365C107.083 122.638 131.493 125.629 132.61 134.059C133.304 139.278 132.633 145.254 130.422 149.833C128.758 153.307 124.216 154.805 117.645 154.445C105.057 153.724 93.1384 152.149 80.7621 149.33C74.3312 147.965 70.3787 145.21 69.8002 141.426C68.9959 136.428 69.899 130.485 71.9879 125.652C75.279 117.833 99.5823 121.598 98.6493 128.325L98.3919 130.181C101.13 130.324 103.218 130.613 105.892 131.221ZM95.0348 140.748C98.2784 142.932 102.465 143.434 106.169 142.293C106.842 141.992 107.381 141.515 107.179 140.699C107.032 140.048 106.313 139.554 105.662 139.7C102.587 140.85 98.6538 140.226 96.1619 138.304C95.7194 138.085 94.7701 138.111 94.287 138.753C93.8038 139.396 94.1261 139.913 95.0348 140.748Z" fill="white"/>
<path id="h" d="M34.1845 110.343C34.4446 115.578 34.7047 120.812 34.758 125.969C34.7574 133.416 31.3497 139.637 23.2015 140.506C14.8569 141.395 10.3127 136.021 8.74251 128.742C7.36468 122.336 6.39001 115.986 5.50303 109.528L5.13679 106.092C3.84572 94.911 3.00517 80.5047 2.57271 69.9271C2.19258 59.8403 6.09604 57.3392 13.8516 56.5126C21.4108 55.7068 25.6556 57.3394 27.7046 67.2483C28.3026 70.0639 29.2877 76.5118 29.7417 79.8392C26.3146 83.0838 24.4688 86.2591 23.0639 90.7775C22.3438 93.3364 24.7169 94.1756 25.5102 92.3039C26.2722 90.1377 27.3392 88.0382 28.5043 85.9283C32.1083 79.6862 37.5969 76.2218 43.8799 75.5521C56.544 74.2023 63.9676 84.2333 65.4366 97.0833C66.4974 106.105 66.6723 113.334 66.6637 122.569C66.7613 130.005 63.2555 136.236 55.1073 137.105C46.7627 137.994 42.2184 132.621 40.6483 125.341C39.5151 120.299 38.6869 115.324 37.9464 110.24C37.6245 109.083 36.6887 108.686 35.9033 108.77C35.1179 108.854 34.3849 109.428 34.1845 110.343Z" fill="white"/>
<path id="t" d="M79.0833 40.2273C76.8277 39.9653 74.9461 39.051 73.6643 38.1069C70.6445 35.8677 69.595 32.0683 70.1988 26.8707C71.0988 19.1233 75.3588 17.5309 82.0661 17.1174C82.3123 15.8539 82.4604 14.579 82.7065 13.3155C84.6531 3.40373 88.9132 1.81139 96.6605 2.7114C104.212 3.58861 107.993 6.11513 107.812 16.232C107.801 16.3301 107.789 16.4281 107.778 16.5262C111.919 16.8086 116.004 17.5812 118.198 19.2276C121.218 21.4669 122.256 25.3643 121.652 30.5619C120.775 38.1132 116.522 40.5015 109.468 40.4772L106.786 40.4638C106.513 42.8174 106.164 44.9635 105.665 46.6946C101.017 47.3473 96.8573 50.641 95.471 53.1635C94.6889 54.7623 96.68 55.59 97.4051 54.4815C100.283 50.2438 105.113 48.0219 109.578 48.9383C115.319 50.0027 120.298 55.0537 118.438 65.075C116.836 73.7347 106.863 77.4464 96.2717 76.216C77.3446 74.0173 77.2565 61.0861 78.9124 41.6984C78.9694 41.208 79.0263 40.7177 79.0833 40.2273Z" fill="white"/>
</g>
<path id="Vector 1" d="M123.341 161.227C87.8146 156.312 32.2465 148.58 13.685 145.84C11.2518 145.48 9.39671 148.138 10.552 150.31L12.1986 153.404C17.2809 162.956 24.7505 171.133 33.7815 177.092C51.4536 188.753 74.0579 190.538 93.2708 181.642L100.942 178.09L124.2 166.756C126.8 165.489 126.206 161.623 123.341 161.227Z" fill="black"/>
</g>
<rect id="Rectangle 1" x="111.992" y="159.689" width="52.79" height="11.4408" rx="5.72038" transform="rotate(7.73485 111.992 159.689)" fill="black"/>
</g>
</svg>
